<svg viewBox="0 0 20 21" fill="none"  xmlns="http://www.w3.org/2000/svg">
<path d="M7.17 3.00001C7.3766 2.41448 7.75974 1.90744 8.2666 1.5488C8.77346 1.19015 9.37909 0.997559 10 0.997559C10.6209 0.997559 11.2265 1.19015 11.7334 1.5488C12.2403 1.90744 12.6234 2.41448 12.83 3.00001M18.5 5.00001H1.5M16.373 14.4C16.196 17.054 16.108 18.381 15.243 19.19C14.378 20 13.048 20 10.387 20H9.613C6.953 20 5.623 20 4.757 19.19C3.892 18.381 3.804 17.054 3.627 14.4L3.167 7.50001M16.833 7.50001L16.633 10.5M7.5 10L8 15M12.5 10L12 15"  stroke-width="1.5" stroke-linecap="round"/>
</svg>
