<svg viewBox="0 0 187 187" xmlns="http://www.w3.org/2000/svg">
<path d="M84.4516 21.1129V9.04839C84.4516 6.64861 85.4049 4.34711 87.1018 2.65021C88.7987 0.953309 91.1002 0 93.5 0C95.8998 0 98.2013 0.953309 99.8982 2.65021C101.595 4.34711 102.548 6.64861 102.548 9.04839V21.1129C102.548 23.5127 101.595 25.8142 99.8982 27.5111C98.2013 29.208 95.8998 30.1613 93.5 30.1613C91.1002 30.1613 88.7987 29.208 87.1018 27.5111C85.4049 25.8142 84.4516 23.5127 84.4516 21.1129ZM144.774 93.5C144.774 103.641 141.767 113.554 136.133 121.986C130.499 130.418 122.491 136.99 113.122 140.871C103.753 144.752 93.4431 145.767 83.4969 143.789C73.5507 141.811 64.4145 136.927 57.2437 129.756C50.0728 122.586 45.1895 113.449 43.211 103.503C41.2326 93.5569 42.248 83.2473 46.1288 73.8782C50.0096 64.5091 56.5816 56.5011 65.0136 50.8671C73.4456 45.233 83.3589 42.2258 93.5 42.2258C107.094 42.2398 120.128 47.6464 129.741 57.2591C139.354 66.8718 144.76 79.9055 144.774 93.5ZM126.677 93.5C126.677 86.9381 124.732 80.5236 121.086 75.0676C117.44 69.6116 112.259 65.3592 106.196 62.8481C100.134 60.3369 93.4632 59.6799 87.0274 60.9601C80.5916 62.2402 74.68 65.4001 70.04 70.04C65.4001 74.68 62.2402 80.5916 60.9601 87.0274C59.6799 93.4632 60.3369 100.134 62.8481 106.196C65.3592 112.259 69.6116 117.44 75.0676 121.086C80.5236 124.732 86.9381 126.677 93.5 126.677C102.296 126.667 110.729 123.169 116.949 116.949C123.169 110.729 126.667 102.296 126.677 93.5ZM35.8241 48.6275C36.6657 49.4692 37.665 50.1369 38.7647 50.5924C39.8644 51.0479 41.043 51.2824 42.2333 51.2824C43.4237 51.2824 44.6023 51.0479 45.702 50.5924C46.8017 50.1369 47.8009 49.4692 48.6426 48.6275C49.4843 47.7859 50.152 46.7866 50.6075 45.6869C51.063 44.5872 51.2974 43.4086 51.2974 42.2183C51.2974 41.028 51.063 39.8493 50.6075 38.7496C50.152 37.6499 49.4843 36.6507 48.6426 35.809L39.5942 26.7606C37.8944 25.0608 35.5889 24.1058 33.185 24.1058C30.781 24.1058 28.4755 25.0608 26.7757 26.7606C25.0758 28.4605 24.1209 30.7659 24.1209 33.1699C24.1209 35.5738 25.0758 37.8793 26.7757 39.5792L35.8241 48.6275ZM35.8241 138.357L26.7757 147.406C25.934 148.247 25.2664 149.247 24.8108 150.346C24.3553 151.446 24.1209 152.625 24.1209 153.815C24.1209 155.005 24.3553 156.184 24.8108 157.284C25.2664 158.383 25.934 159.383 26.7757 160.224C28.4755 161.924 30.781 162.879 33.185 162.879C34.3753 162.879 35.5539 162.645 36.6536 162.189C37.7533 161.734 38.7526 161.066 39.5942 160.224L48.6426 151.176C50.3425 149.476 51.2974 147.171 51.2974 144.767C51.2974 142.363 50.3425 140.057 48.6426 138.357C46.9428 136.658 44.6373 135.703 42.2333 135.703C39.8294 135.703 37.5239 136.658 35.8241 138.357ZM144.774 51.2742C145.963 51.2751 147.14 51.0419 148.238 50.5878C149.337 50.1336 150.335 49.4675 151.176 48.6275L160.224 39.5792C161.066 38.7375 161.734 37.7383 162.189 36.6386C162.645 35.5388 162.879 34.3602 162.879 33.1699C162.879 31.9796 162.645 30.8009 162.189 29.7012C161.734 28.6015 161.066 27.6023 160.224 26.7606C159.383 25.9189 158.383 25.2513 157.284 24.7958C156.184 24.3402 155.005 24.1058 153.815 24.1058C152.625 24.1058 151.446 24.3402 150.346 24.7958C149.247 25.2513 148.247 25.9189 147.406 26.7606L138.357 35.809C137.084 37.0746 136.217 38.6902 135.864 40.4503C135.512 42.2105 135.691 44.0356 136.379 45.6936C137.067 47.3516 138.233 48.7675 139.728 49.7612C141.222 50.755 142.979 51.2816 144.774 51.2742ZM151.176 138.372C149.476 136.673 147.171 135.718 144.767 135.718C142.363 135.718 140.057 136.673 138.357 138.372C136.658 140.072 135.703 142.378 135.703 144.782C135.703 147.186 136.658 149.491 138.357 151.191L147.406 160.239C149.106 161.939 151.411 162.894 153.815 162.894C156.219 162.894 158.524 161.939 160.224 160.239C161.924 158.54 162.879 156.234 162.879 153.83C162.879 151.426 161.924 149.121 160.224 147.421L151.176 138.372ZM30.1613 93.5C30.1613 91.1002 29.208 88.7987 27.5111 87.1018C25.8142 85.4049 23.5127 84.4516 21.1129 84.4516H9.04839C6.64861 84.4516 4.34711 85.4049 2.65021 87.1018C0.953309 88.7987 0 91.1002 0 93.5C0 95.8998 0.953309 98.2013 2.65021 99.8982C4.34711 101.595 6.64861 102.548 9.04839 102.548H21.1129C23.5127 102.548 25.8142 101.595 27.5111 99.8982C29.208 98.2013 30.1613 95.8998 30.1613 93.5ZM93.5 156.839C91.1002 156.839 88.7987 157.792 87.1018 159.489C85.4049 161.186 84.4516 163.487 84.4516 165.887V177.952C84.4516 180.351 85.4049 182.653 87.1018 184.35C88.7987 186.047 91.1002 187 93.5 187C95.8998 187 98.2013 186.047 99.8982 184.35C101.595 182.653 102.548 180.351 102.548 177.952V165.887C102.548 163.487 101.595 161.186 99.8982 159.489C98.2013 157.792 95.8998 156.839 93.5 156.839ZM177.952 84.4516H165.887C163.487 84.4516 161.186 85.4049 159.489 87.1018C157.792 88.7987 156.839 91.1002 156.839 93.5C156.839 95.8998 157.792 98.2013 159.489 99.8982C161.186 101.595 163.487 102.548 165.887 102.548H177.952C180.351 102.548 182.653 101.595 184.35 99.8982C186.047 98.2013 187 95.8998 187 93.5C187 91.1002 186.047 88.7987 184.35 87.1018C182.653 85.4049 180.351 84.4516 177.952 84.4516Z" fill="black"/>
</svg>
