<svg  viewBox="0 0 679 557"  xmlns="http://www.w3.org/2000/svg">
<path d="M664.455 293.229L49.9253 293.229L289.154 532.458C291.844 535.148 293.356 538.797 293.356 542.601C293.356 546.406 291.844 550.054 289.154 552.744C286.464 555.435 282.815 556.946 279.011 556.946C275.206 556.946 271.558 555.435 268.868 552.744L5.14277 289.02C2.45261 286.33 0.941288 282.681 0.941288 278.876C0.941288 275.072 2.45261 271.423 5.14277 268.733L268.868 5.00845C271.558 2.3183 275.206 0.806973 279.011 0.806973C282.815 0.806973 286.464 2.3183 289.154 5.00845C291.844 7.69861 293.356 11.3473 293.356 15.1517C293.356 18.9562 291.844 22.6048 289.154 25.295L49.9253 264.524L664.455 264.524C666.339 264.524 668.206 264.895 669.947 265.616C671.689 266.338 673.271 267.395 674.604 268.728C675.936 270.06 676.994 271.643 677.715 273.384C678.436 275.125 678.807 276.992 678.807 278.876C678.807 280.761 678.436 282.628 677.715 284.369C676.994 286.11 675.936 287.693 674.604 289.025C673.271 290.358 671.689 291.415 669.947 292.137C668.206 292.858 666.339 293.229 664.455 293.229Z" />
</svg>
