<svg  viewBox="0 0 225 210"  xmlns="http://www.w3.org/2000/svg">
<path d="M113 57.0001C103.506 57.0001 94.2261 59.8153 86.3326 65.0896C78.439 70.3639 72.2867 77.8605 68.6537 86.6313C65.0207 95.4022 64.0702 105.053 65.9223 114.364C67.7743 123.676 72.3459 132.228 79.0588 138.941C85.7717 145.654 94.3245 150.226 103.636 152.078C112.947 153.93 122.598 152.979 131.369 149.346C140.14 145.713 147.636 139.561 152.91 131.668C158.185 123.774 161 114.494 161 105C160.987 92.2738 155.925 80.0725 146.926 71.0736C137.928 62.0748 125.726 57.0134 113 57.0001ZM113 137C106.671 137 100.484 135.123 95.2217 131.607C89.9593 128.091 85.8578 123.093 83.4358 117.246C81.0138 111.399 80.3801 104.965 81.6148 98.7572C82.8495 92.5499 85.8972 86.848 90.3725 82.3727C94.8478 77.8974 100.55 74.8497 106.757 73.615C112.964 72.3803 119.399 73.014 125.246 75.436C131.093 77.858 136.091 81.9595 139.607 87.2219C143.123 92.4843 145 98.6711 145 105C145 113.487 141.629 121.626 135.627 127.628C129.626 133.629 121.487 137 113 137ZM222.94 84.2101C222.717 83.0836 222.254 82.0182 221.583 81.0864C220.912 80.1546 220.048 79.3783 219.05 78.8101L189.22 61.8101L189.1 28.1901C189.096 27.0323 188.841 25.889 188.353 24.8393C187.864 23.7896 187.154 22.8584 186.27 22.1101C175.449 12.9571 162.988 5.9428 149.55 1.44013C148.492 1.08193 147.37 0.949372 146.257 1.05099C145.145 1.15261 144.066 1.48615 143.09 2.03013L113 18.8501L82.8799 2.00013C81.9035 1.45309 80.8231 1.11702 79.7086 1.01367C78.5941 0.91032 77.4704 1.04198 76.41 1.40013C62.9814 5.93571 50.5349 12.9768 39.7299 22.1501C38.8476 22.8973 38.1377 23.8268 37.6492 24.8747C37.1606 25.9226 36.905 27.064 36.9 28.2201L36.75 61.8701L6.91995 78.8701C5.92197 79.4383 5.058 80.2146 4.38677 81.1464C3.71554 82.0782 3.25278 83.1436 3.02995 84.2701C0.299912 97.989 0.299912 112.111 3.02995 125.83C3.25278 126.957 3.71554 128.022 4.38677 128.954C5.058 129.886 5.92197 130.662 6.91995 131.23L36.75 148.23L36.8699 181.85C36.8736 183.008 37.1285 184.151 37.6171 185.201C38.1057 186.251 38.8163 187.182 39.7 187.93C50.5207 197.083 62.9815 204.097 76.4199 208.6C77.4782 208.958 78.5998 209.091 79.7124 208.989C80.8251 208.888 81.9041 208.554 82.8799 208.01L113 191.15L143.12 208C144.312 208.664 145.655 209.009 147.02 209C147.894 209 148.762 208.858 149.59 208.58C163.017 204.051 175.463 197.016 186.27 187.85C187.152 187.103 187.862 186.173 188.351 185.126C188.839 184.078 189.095 182.936 189.1 181.78L189.25 148.13L219.08 131.13C220.078 130.562 220.942 129.786 221.613 128.854C222.284 127.922 222.747 126.857 222.97 125.73C225.685 112.022 225.675 97.9141 222.94 84.2101ZM207.94 119.12L179.37 135.37C178.118 136.082 177.082 137.118 176.37 138.37C175.79 139.37 175.18 140.43 174.56 141.43C173.766 142.691 173.344 144.15 173.34 145.64L173.19 177.89C165.511 183.921 156.955 188.743 147.82 192.19L119 176.13C117.803 175.468 116.457 175.124 115.09 175.13H111.26C109.829 175.094 108.414 175.439 107.16 176.13L78.3199 192.23C69.1651 188.809 60.5862 184.011 52.8799 178L52.7699 145.8C52.765 144.307 52.3424 142.845 51.55 141.58C50.93 140.58 50.32 139.58 49.75 138.52C49.0432 137.249 48.0068 136.192 46.75 135.46L18.15 119.17C16.6699 109.808 16.6699 100.272 18.15 90.9101L46.6699 74.6301C47.9217 73.9184 48.9582 72.8819 49.6699 71.6301C50.2499 70.6301 50.86 69.5701 51.48 68.5701C52.2736 67.3091 52.6964 65.8501 52.6999 64.3601L52.8499 32.1101C60.5292 26.0796 69.0845 21.2573 78.2199 17.8101L107 33.8701C108.252 34.5644 109.668 34.9098 111.1 34.8701H114.74C116.171 34.9059 117.586 34.5608 118.84 33.8701L147.68 17.7701C156.835 21.1909 165.414 25.9895 173.12 32.0001L173.23 64.2001C173.235 65.6931 173.657 67.1549 174.45 68.4201C175.07 69.4201 175.68 70.4201 176.25 71.4801C176.957 72.7513 177.993 73.8083 179.25 74.5401L207.85 90.8301C209.35 100.199 209.367 109.746 207.9 119.12H207.94Z" />
</svg>
