<svg viewBox="0 0 18 18" xmlns="http://www.w3.org/2000/svg">
<path d="M-0.000976562 8.50249L2.3365e-05 0.946487L0.0140233 0.826487L0.0340233 0.738487L0.0680234 0.634487L0.108023 0.544487L0.144023 0.481487L0.186023 0.418488L0.236023 0.354488L0.294023 0.291487L0.404023 0.197487L0.514023 0.125488L0.628023 0.0724869L0.733023 0.0364876L0.798023 0.0214882L0.851023 0.011488L0.999023 0.00148773H8.50302C8.7579 0.00177044 9.00306 0.0993666 9.18839 0.274336C9.37373 0.449305 9.48526 0.688441 9.5002 0.942883C9.51513 1.19732 9.43235 1.44787 9.26876 1.64332C9.10517 1.83877 8.87312 1.96438 8.62002 1.99449L8.50302 2.00149H3.41302L15.997 14.5865V9.49849C15.9971 9.2534 16.0871 9.01687 16.2501 8.83381C16.4131 8.65076 16.6376 8.53392 16.881 8.50549L16.997 8.49849C17.2423 8.4983 17.4791 8.58826 17.6623 8.75124C17.8456 8.91423 17.9626 9.13889 17.991 9.38249L17.997 9.49849V17.0595L17.987 17.1555L17.972 17.2325L17.95 17.3095L17.924 17.3795L17.882 17.4695L17.829 17.5585L17.759 17.6495L17.786 17.6175C17.7374 17.6791 17.6816 17.7348 17.62 17.7835L17.55 17.8345L17.486 17.8745L17.422 17.9065L17.34 17.9405L17.26 17.9655L17.149 17.9895L17.088 17.9965L16.998 18.0005H9.49502C9.24014 18.0002 8.99499 17.9026 8.80966 17.7276C8.62432 17.5527 8.51279 17.3135 8.49785 17.0591C8.48291 16.8047 8.5657 16.5541 8.72929 16.3587C8.89288 16.1632 9.12493 16.0376 9.37802 16.0075L9.49502 16.0005H14.583L1.99902 3.41649L1.99902 8.50249C1.99924 8.74759 1.90942 8.98424 1.74664 9.16749C1.58386 9.35073 1.35945 9.46781 1.11602 9.49649L0.999023 9.50249C0.733807 9.50249 0.479453 9.39713 0.291917 9.2096C0.10438 9.02206 -0.000976562 8.7677 -0.000976562 8.50249Z" fill="black"/>
</svg>
