<svg viewBox="0 0 22 21" xmlns="http://www.w3.org/2000/svg">
<path d="M11.4991 11.5128C11.4992 11.2677 11.5893 11.0312 11.7522 10.8481C11.9152 10.665 12.1397 10.5482 12.3831 10.5198L12.4991 10.5128L20.0031 10.5128C20.2596 10.5108 20.507 10.6073 20.6942 10.7825C20.8815 10.9577 20.9943 11.1982 21.0093 11.4542C21.0243 11.7102 20.9404 11.9622 20.775 12.1581C20.6095 12.354 20.3751 12.4788 20.1201 12.5068L20.0031 12.5128H14.9101L20.7021 18.3038C20.8743 18.476 20.9777 18.7051 20.993 18.9481C21.0083 19.1911 20.9344 19.4314 20.7851 19.6238L20.7021 19.7188C20.5299 19.891 20.3008 19.9944 20.0578 20.0097C19.8148 20.0249 19.5745 19.951 19.3821 19.8018L19.2871 19.7188L13.4991 13.9308V19.0148C13.4989 19.2697 13.4013 19.5148 13.2263 19.7001C13.0513 19.8855 12.8122 19.997 12.5577 20.012C12.3033 20.0269 12.0528 19.9441 11.8573 19.7805C11.6619 19.6169 11.5362 19.3849 11.5061 19.1318L11.4991 19.0148V11.5128ZM0.994141 8.51278C0.993928 8.26767 1.08374 8.03103 1.24652 7.84778C1.40931 7.66454 1.63372 7.54746 1.87714 7.51878L1.99414 7.51178H7.08114L1.28714 1.71878C1.11496 1.54659 1.01153 1.31749 0.996252 1.07446C0.980971 0.831435 1.05489 0.591185 1.20414 0.398781L1.28714 0.30378C1.45933 0.131603 1.68843 0.028173 1.93146 0.0128918C2.17449 -0.00238942 2.41474 0.0715281 2.60714 0.220779L2.70214 0.30378L8.49714 6.10078V1.01078C8.49511 0.754346 8.59168 0.506933 8.76688 0.319672C8.94208 0.13241 9.18253 0.0196141 9.43853 0.0045929C9.69454 -0.0104283 9.94653 0.0734739 10.1424 0.23896C10.3383 0.404447 10.4632 0.638868 10.4911 0.89378L10.4981 1.01078L10.4981 8.51078C10.4984 8.75588 10.4085 8.99253 10.2458 9.17578C10.083 9.35902 9.85856 9.4761 9.61514 9.50478L9.49814 9.51078H1.99414C1.72892 9.51078 1.47457 9.40542 1.28703 9.21789C1.0995 9.03035 0.994141 8.776 0.994141 8.51078V8.51278Z"/>
</svg>
