<svg  viewBox="0 0 204 204"  xmlns="http://www.w3.org/2000/svg">
<path d="M201.638 122.154C200.612 121.126 199.325 120.396 197.915 120.044C196.506 119.692 195.027 119.73 193.638 120.154C178.384 124.766 162.164 125.152 146.707 121.273C131.251 117.394 117.136 109.393 105.867 98.1248C94.5988 86.8562 86.5985 72.7416 82.7191 57.2849C78.8396 41.8282 79.2263 25.6085 83.8379 10.3542C84.2658 8.96427 84.3068 7.48391 83.9564 6.07238C83.606 4.66085 82.8774 3.37155 81.849 2.34315C80.8206 1.31474 79.5313 0.586143 78.1197 0.235705C76.7082 -0.114732 75.2278 -0.073748 73.8379 0.354249C52.7481 6.8147 34.2332 19.7622 20.9279 37.3542C9.29198 52.8028 2.1944 71.19 0.432501 90.45C-1.3294 109.71 2.3142 129.08 10.9539 146.383C19.5937 163.686 32.8873 178.238 49.3412 188.403C65.7951 198.567 84.7574 203.942 104.098 203.924C126.661 203.994 148.624 196.659 166.618 183.044C184.21 169.739 197.157 151.224 203.618 130.134C204.041 128.749 204.08 127.276 203.731 125.87C203.383 124.465 202.659 123.181 201.638 122.154ZM156.998 170.264C140.053 183.027 119.069 189.239 97.9073 187.757C76.7459 186.276 56.8319 177.2 41.8312 162.2C26.8306 147.201 17.753 127.288 16.2696 106.126C14.7861 84.9648 20.9966 63.9799 33.7579 47.0342C42.0719 36.0549 52.8205 27.1547 65.1579 21.0343C64.455 25.9665 64.1008 30.9422 64.0979 35.9242C64.127 63.4978 75.0934 89.9337 94.5909 109.431C114.088 128.929 140.524 139.895 168.098 139.924C173.09 139.923 178.076 139.568 183.018 138.864C176.892 151.204 167.985 161.953 156.998 170.264Z" />
</svg>
