<svg viewBox="0 0 200 200"  xmlns="http://www.w3.org/2000/svg">
<path d="M60 80H12C8.8174 80 5.76516 78.7357 3.51472 76.4853C1.26428 74.2348 0 71.1826 0 68V20C0 16.8174 1.26428 13.7652 3.51472 11.5147C5.76516 9.26428 8.8174 8 12 8C15.1826 8 18.2348 9.26428 20.4853 11.5147C22.7357 13.7652 24 16.8174 24 20V33.86C40.65 17.46 66.29 0 100 0C144.46 0 171.36 26.39 172.49 27.51C174.715 29.7625 175.959 32.8031 175.952 35.9692C175.945 39.1352 174.687 42.1702 172.453 44.4129C170.218 46.6556 167.187 47.9243 164.021 47.9425C160.855 47.9606 157.81 46.7269 155.55 44.51C155.11 44.09 134 24 100 24C71 24 49.06 41.68 36 56H60C63.1826 56 66.2348 57.2643 68.4853 59.5147C70.7357 61.7652 72 64.8174 72 68C72 71.1826 70.7357 74.2348 68.4853 76.4853C66.2348 78.7357 63.1826 80 60 80ZM188 120H140C136.817 120 133.765 121.264 131.515 123.515C129.264 125.765 128 128.817 128 132C128 135.183 129.264 138.235 131.515 140.485C133.765 142.736 136.817 144 140 144H164C151 158.32 129 176 100 176C66 176 44.89 155.91 44.45 155.48C42.1896 153.263 39.1447 152.029 35.9787 152.048C32.8126 152.066 29.7821 153.334 27.5473 155.577C25.3125 157.82 24.0546 160.855 24.0476 164.021C24.0406 167.187 25.2851 170.227 27.51 172.48C28.64 173.61 55.54 200 100 200C133.71 200 159.35 182.54 176 166.14V180C176 183.183 177.264 186.235 179.515 188.485C181.765 190.736 184.817 192 188 192C191.183 192 194.235 190.736 196.485 188.485C198.736 186.235 200 183.183 200 180V132C200 128.817 198.736 125.765 196.485 123.515C194.235 121.264 191.183 120 188 120Z"/>
</svg>
